<svg width="177" height="47" viewBox="0 0 177 47" fill="none" xmlns="http://www.w3.org/2000/svg">
<path d="M71.2811 26.553C70.1498 26.0458 69.3327 25.2848 68.7041 24.3337C68.0756 23.3826 67.7613 22.3046 67.6985 21.0364H70.6526C70.7154 22.1144 71.2183 23.0021 71.9725 23.6996C72.7267 24.3971 73.8581 24.7142 75.1151 24.7142C76.2465 24.7142 77.1264 24.4605 77.8178 24.0166C78.5092 23.5094 78.8863 22.8753 78.8863 21.9875C78.8863 21.3534 78.6978 20.8462 78.3207 20.4657C77.9435 20.0853 77.4407 19.8316 76.8122 19.6414C76.1837 19.4512 75.2409 19.2609 74.0466 19.0073H73.9209C72.7896 18.8171 71.7839 18.5634 70.9668 18.183C70.1498 17.8025 69.4584 17.2952 68.8927 16.5977C68.3899 15.9002 68.1385 14.9491 68.1385 13.8077C68.1385 12.7297 68.3899 11.7786 68.9555 10.9543C69.5212 10.13 70.2755 9.49586 71.2811 8.98858C72.2868 8.54471 73.4181 8.29108 74.6752 8.29108C75.9951 8.29108 77.1893 8.54472 78.1949 9.05199C79.2635 9.55927 80.0805 10.1934 80.6462 11.0811C81.2747 11.9688 81.589 12.9834 81.589 14.0613H78.6349C78.5092 13.1102 78.0692 12.3493 77.3779 11.7786C76.6865 11.2079 75.7437 10.8909 74.6752 10.8909C73.6067 10.8909 72.7267 11.1445 72.0982 11.5884C71.4697 12.0322 71.1554 12.7297 71.1554 13.5541C71.1554 14.1882 71.344 14.632 71.7211 15.0125C72.0982 15.3295 72.601 15.6466 73.2296 15.8368C73.8581 16.027 74.738 16.2173 75.9322 16.4709C77.1264 16.6611 78.1321 16.9782 79.012 17.2952C79.892 17.6123 80.5834 18.183 81.149 18.8805C81.7147 19.578 81.9661 20.5291 81.9661 21.6705C81.9661 22.7485 81.6519 23.6996 81.0862 24.5873C80.5205 25.4751 79.7034 26.1092 78.6349 26.6164C77.5664 27.1237 76.4351 27.3139 75.1151 27.3139C73.6695 27.3774 72.3496 27.1237 71.2811 26.553Z" fill="#E60000"/>
<path d="M94.851 14.2516C95.7938 14.8222 96.548 15.5832 97.1137 16.6611C97.6794 17.7391 97.9308 18.9439 97.9308 20.4023C97.9308 21.7973 97.6794 23.0021 97.1137 24.0166C96.548 25.0946 95.7938 25.9189 94.851 26.4896C93.9082 27.0603 92.7769 27.3773 91.5826 27.3773C90.3884 27.3773 89.3828 27.1237 88.5657 26.6164C87.7486 26.1092 87.1829 25.4116 86.743 24.5873L87.1201 23.9532V32.5769H84.2917V13.6175H86.743L87.3086 16.9782L86.6801 16.3441C87.1829 15.5198 87.8115 14.8222 88.5657 14.2516C89.3828 13.7443 90.3256 13.4906 91.5198 13.4906C92.7768 13.4272 93.8454 13.7443 94.851 14.2516ZM89.0057 16.4075C88.3771 16.7879 87.9372 17.2952 87.6229 17.9927C87.3086 18.6902 87.1201 19.4511 87.1201 20.3389C87.1201 21.2266 87.3086 22.0509 87.6229 22.7484C87.9372 23.4459 88.44 23.9532 89.0057 24.3971C89.6342 24.7775 90.2627 24.9678 91.0798 24.9678C91.8341 24.9678 92.5254 24.7775 93.154 24.3971C93.7825 24.0166 94.2225 23.4459 94.5367 22.8119C94.851 22.1143 95.0396 21.3534 95.0396 20.4657C95.0396 19.578 94.851 18.817 94.5367 18.1195C94.2225 17.422 93.7825 16.9148 93.154 16.5343C92.5254 16.1538 91.8341 15.9636 91.0798 15.9636C90.2627 15.8368 89.5713 16.027 89.0057 16.4075Z" fill="#E60000"/>
<path d="M103.022 26.4896C101.953 25.9189 101.136 25.0946 100.571 24.0166C100.005 22.9387 99.6907 21.7339 99.6907 20.4023C99.6907 19.0073 100.005 17.8025 100.571 16.7245C101.136 15.6466 101.953 14.8857 103.022 14.315C104.09 13.7443 105.285 13.4272 106.605 13.4272C107.987 13.4272 109.182 13.7443 110.187 14.315C111.256 14.8857 112.073 15.71 112.638 16.7245C113.204 17.8025 113.518 19.0073 113.518 20.4023C113.518 21.7973 113.204 23.0021 112.638 24.0801C112.073 25.158 111.256 25.9189 110.187 26.553C109.119 27.1237 107.924 27.4408 106.605 27.4408C105.222 27.3773 104.028 27.0603 103.022 26.4896ZM108.679 24.3337C109.307 23.9532 109.747 23.446 110.061 22.7485C110.376 22.0509 110.564 21.29 110.564 20.4023C110.564 19.5146 110.376 18.7537 110.061 18.0561C109.747 17.3586 109.307 16.8514 108.679 16.4709C108.05 16.0904 107.359 15.9002 106.605 15.9002C105.85 15.9002 105.096 16.0904 104.53 16.4709C103.902 16.8514 103.462 17.3586 103.148 18.0561C102.833 18.7537 102.645 19.5146 102.645 20.4023C102.645 21.29 102.833 22.0509 103.148 22.7485C103.462 23.446 103.965 23.9532 104.53 24.3337C105.159 24.7141 105.85 24.9044 106.605 24.9044C107.359 24.9044 108.113 24.7141 108.679 24.3337Z" fill="#E60000"/>
<path d="M118.295 13.6175L118.798 16.9782L118.232 16.3441C118.61 15.5198 119.175 14.8223 119.804 14.3784C120.432 13.8711 121.375 13.6809 122.569 13.6809H123.198V16.3441H121.941C120.747 16.3441 119.929 16.7246 119.364 17.4855C118.861 18.2464 118.547 19.2609 118.547 20.4657V27.314H115.718V13.6175H118.295Z" fill="#E60000"/>
<path d="M125.083 9.74951H127.912V13.5541H131.18V16.0271H127.912V23.1289C127.912 23.6996 128.037 24.0801 128.226 24.2703C128.415 24.5239 128.792 24.5874 129.295 24.5874H131.494V27.1237H128.729C127.472 27.1237 126.529 26.8067 125.963 26.236C125.398 25.6653 125.083 24.7142 125.083 23.446V9.74951V9.74951Z" fill="#E60000"/>
<path d="M136.208 26.553C135.077 26.0458 134.26 25.2848 133.631 24.3337C133.003 23.3826 132.689 22.3046 132.626 21.0364H135.58C135.643 22.1144 136.145 23.0021 136.9 23.6996C137.654 24.3971 138.785 24.7142 140.042 24.7142C141.174 24.7142 142.054 24.4605 142.745 24.0166C143.436 23.5094 143.814 22.8753 143.814 21.9875C143.814 21.3534 143.625 20.8462 143.248 20.4657C142.871 20.0853 142.368 19.8316 141.739 19.6414C141.111 19.4512 140.168 19.2609 138.974 19.0073H138.848C137.717 18.8171 136.711 18.5634 135.894 18.183C135.077 17.8025 134.386 17.2952 133.82 16.5977C133.317 15.9002 133.066 14.9491 133.066 13.8077C133.066 12.7297 133.317 11.7786 133.883 10.9543C134.448 10.13 135.203 9.49586 136.208 8.98858C137.214 8.54471 138.345 8.29108 139.602 8.29108C140.922 8.29108 142.117 8.54472 143.122 9.05199C144.191 9.55927 145.008 10.1934 145.573 11.0811C146.202 11.9688 146.516 12.9834 146.516 14.0613H143.562C143.436 13.1102 142.996 12.3493 142.305 11.7786C141.614 11.2079 140.671 10.8909 139.602 10.8909C138.534 10.8909 137.654 11.1445 137.025 11.5884C136.397 12.0322 136.083 12.7297 136.083 13.5541C136.083 14.1882 136.271 14.632 136.648 15.0125C137.025 15.3295 137.528 15.6466 138.157 15.8368C138.785 16.027 139.665 16.2173 140.859 16.4709C142.054 16.6611 143.059 16.9782 143.939 17.2952C144.819 17.6123 145.511 18.183 146.076 18.8805C146.642 19.578 146.893 20.5291 146.893 21.6705C146.893 22.7485 146.579 23.6996 146.013 24.5873C145.448 25.4751 144.631 26.1092 143.562 26.6164C142.494 27.1237 141.362 27.3139 140.042 27.3139C138.597 27.3774 137.34 27.1237 136.208 26.553Z" fill="#E60000"/>
<path d="M152.047 26.4896C150.979 25.9189 150.162 25.0946 149.596 24.0801C149.03 23.0021 148.716 21.7973 148.716 20.4023C148.716 19.0073 148.968 17.7391 149.533 16.7245C150.099 15.71 150.853 14.8857 151.859 14.315C152.864 13.7443 153.996 13.4272 155.316 13.4272C156.636 13.4272 157.767 13.6809 158.773 14.1882C159.778 14.6954 160.533 15.4564 161.098 16.4709C161.664 17.4855 161.978 18.6268 161.978 19.895C161.978 20.0853 161.978 20.2121 161.978 20.4023C161.978 20.5925 161.978 20.7828 161.915 20.973H151.733C151.733 21.0364 151.733 21.0364 151.733 21.0364V21.0998C151.796 21.8607 151.922 22.5582 152.236 23.1289C152.55 23.6996 152.99 24.1435 153.556 24.4605C154.121 24.7776 154.75 24.9678 155.504 24.9678C156.384 24.9678 157.138 24.7776 157.704 24.3337C158.333 23.8898 158.71 23.3191 158.898 22.5582H161.79C161.601 23.446 161.287 24.2703 160.721 24.9678C160.155 25.6653 159.464 26.236 158.647 26.6798C157.767 27.0603 156.824 27.3139 155.756 27.3139C154.31 27.3774 153.053 27.0603 152.047 26.4896ZM153.744 16.1539C153.242 16.4075 152.802 16.788 152.487 17.2952C152.173 17.8025 151.922 18.3098 151.859 18.9439H159.087C158.961 17.9293 158.584 17.105 157.956 16.5977C157.327 16.027 156.447 15.7734 155.441 15.7734C154.813 15.71 154.247 15.8368 153.744 16.1539Z" fill="#E60000"/>
<path d="M167.069 26.4896C166.001 25.9189 165.184 25.0946 164.618 24.0801C164.052 23.0021 163.738 21.7973 163.738 20.4023C163.738 19.0073 163.989 17.7391 164.555 16.7245C165.121 15.71 165.875 14.8857 166.881 14.315C167.886 13.7443 169.018 13.4272 170.338 13.4272C171.658 13.4272 172.789 13.6809 173.795 14.1882C174.8 14.6954 175.554 15.4564 176.12 16.4709C176.686 17.4855 177 18.6268 177 19.895C177 20.0853 177 20.2121 177 20.4023C177 20.5925 177 20.7828 176.937 20.973H166.755C166.755 21.0364 166.755 21.0364 166.755 21.0364V21.0998C166.818 21.8607 166.944 22.5582 167.258 23.1289C167.572 23.6996 168.012 24.1435 168.578 24.4605C169.143 24.7776 169.772 24.9678 170.526 24.9678C171.406 24.9678 172.16 24.7776 172.726 24.3337C173.355 23.8898 173.732 23.3191 173.92 22.5582H176.811C176.623 23.446 176.309 24.2703 175.743 24.9678C175.177 25.6653 174.486 26.236 173.669 26.6798C172.789 27.0603 171.846 27.3139 170.778 27.3139C169.332 27.3774 168.138 27.0603 167.069 26.4896ZM168.766 16.1539C168.263 16.4075 167.823 16.788 167.509 17.2952C167.195 17.8025 166.944 18.3098 166.881 18.9439H174.109C173.983 17.9293 173.606 17.105 172.977 16.5977C172.349 16.027 171.469 15.7734 170.463 15.7734C169.835 15.71 169.269 15.8368 168.766 16.1539Z" fill="#E60000"/>
<mask id="mask0_0_1" style="mask-type:alpha" maskUnits="userSpaceOnUse" x="0" y="-11" width="58" height="58">
<path d="M28.5982 46.7027C44.3925 46.7027 57.1963 33.7855 57.1963 17.8514C57.1963 1.91719 44.3925 -11 28.5982 -11C12.8038 -11 0 1.91719 0 17.8514C0 33.7855 12.8038 46.7027 28.5982 46.7027Z" fill="#FF0101"/>
</mask>
<g mask="url(#mask0_0_1)">
<path d="M39.5346 18.422C39.8489 18.9293 40.4146 19.2463 41.0431 19.2463C41.3574 19.2463 41.6716 19.1829 41.9859 18.9927L50.5968 13.7931C51.4767 13.2858 51.7281 12.1445 51.2253 11.3201C50.7225 10.4324 49.5911 10.1788 48.774 10.686L41.6088 14.9979L38.1519 8.21307C37.2091 7.26192 36.1406 6.31078 35.0721 5.48645L24.827 0.28687C24.1356 -0.030178 23.3814 0.0332325 22.8157 0.540509L14.2677 8.33989C13.5134 9.03739 13.4506 10.1788 14.142 10.8763C14.8334 11.6372 15.9647 11.7006 16.6561 11.0031L24.387 4.02804L29.7295 6.75465L20.553 21.0852L-0.377096 46.0686C-1.19419 47.0197 -1.13133 48.5415 -0.125684 49.3659C0.817112 50.1902 2.32559 50.1268 3.14268 49.1122L23.4442 25.4605L32.1808 27.4896L26.2098 36.9376C25.5812 38.079 25.9584 39.474 27.0897 40.1081C28.0954 40.6788 29.4153 40.4251 30.1067 39.4106L37.7747 27.1725C38.2147 26.5384 38.2776 25.7141 38.0261 25.0166C37.7119 24.3191 37.1462 23.8118 36.392 23.685L29.6667 22.0998L35.7634 12.4615L39.5346 18.422Z" fill="#020203"/>
</g>
</svg>
